<svg width="610" height="785" viewBox="0 0 610 785" fill="none" xmlns="http://www.w3.org/2000/svg">
<g clip-path="url(#clip0_353_235)">
<path opacity="0.5" d="M446 393.5C446 577.135 297.135 726 113.5 726C-70.1347 726 -219 577.135 -219 393.5V391.5C-219 207.865 -70.1347 59 113.5 59C297.135 59 446 207.865 446 391.5V393.5Z" stroke="#2D2E40"/>
<path opacity="0.25" d="M505 393.5C505 609.719 329.719 785 113.5 785C-102.719 785 -278 609.719 -278 393.5V391.5C-278 175.281 -102.719 0 113.5 0C329.719 0 505 175.281 505 391.5V393.5Z" stroke="#2D2E40"/>
<path opacity="0.08" d="M388.5 393.5C388.5 545.378 265.378 668.5 113.5 668.5C-38.3783 668.5 -161.5 545.378 -161.5 393.5V391.5C-161.5 239.622 -38.3783 116.5 113.5 116.5C265.378 116.5 388.5 239.622 388.5 391.5V393.5Z" fill="#2D2E40"/>
<g filter="url(#filter0_d_353_235)">
<path d="M519.5 207.5H5.5C-1.12742 207.5 -6.5 212.873 -6.5 219.5V563.5C-6.5 570.127 -1.12742 575.5 5.5 575.5H519.5C526.127 575.5 531.5 570.127 531.5 563.5V219.5C531.5 212.873 526.127 207.5 519.5 207.5Z" fill="#535353"/>
<path d="M518.5 210.5H6.5C0.977152 210.5 -3.5 214.977 -3.5 220.5V562.5C-3.5 568.023 0.977152 572.5 6.5 572.5H518.5C524.023 572.5 528.5 568.023 528.5 562.5V220.5C528.5 214.977 524.023 210.5 518.5 210.5Z" fill="#1D1D25"/>
<mask id="mask0_353_235" style="mask-type:alpha" maskUnits="userSpaceOnUse" x="10" y="223" width="507" height="337">
<path d="M513.5 223.5H13.5C11.8431 223.5 10.5 224.843 10.5 226.5V556.372C10.5 558.029 11.8431 559.372 13.5 559.372H513.5C515.157 559.372 516.5 558.029 516.5 556.372V226.5C516.5 224.843 515.157 223.5 513.5 223.5Z" fill="white"/>
</mask>
<g mask="url(#mask0_353_235)">
<path d="M513.5 223.5H13.5C11.8431 223.5 10.5 224.843 10.5 226.5V556.372C10.5 558.029 11.8431 559.372 13.5 559.372H513.5C515.157 559.372 516.5 558.029 516.5 556.372V226.5C516.5 224.843 515.157 223.5 513.5 223.5Z" fill="url(#paint0_linear_353_235)"/>
<path d="M513.175 283.793H13.175C11.5181 283.793 10.175 285.136 10.175 286.793V556.631C10.175 558.288 11.5181 559.631 13.175 559.631H513.175C514.832 559.631 516.175 558.288 516.175 556.631V286.793C516.175 285.136 514.832 283.793 513.175 283.793Z" fill="#F9F6F6"/>
<path d="M185.621 260.96H84.975C83.3181 260.96 81.975 262.303 81.975 263.96V514.501C81.975 516.158 83.3181 517.501 84.975 517.501H185.621C187.278 517.501 188.621 516.158 188.621 514.501V263.96C188.621 262.303 187.278 260.96 185.621 260.96Z" fill="white"/>
<path d="M442.024 260.96H209.773C208.116 260.96 206.773 262.303 206.773 263.96V514.501C206.773 516.158 208.116 517.501 209.773 517.501H442.024C443.681 517.501 445.024 516.158 445.024 514.501V263.96C445.024 262.303 443.681 260.96 442.024 260.96Z" fill="white"/>
<path d="M431.814 274.582H219.984C218.327 274.582 216.984 275.925 216.984 277.582V331.744C216.984 333.401 218.327 334.744 219.984 334.744H431.814C433.471 334.744 434.814 333.401 434.814 331.744V277.582C434.814 275.925 433.471 274.582 431.814 274.582Z" fill="#E7E7E7"/>
<path d="M278.652 347.23H219.984C218.327 347.23 216.984 348.573 216.984 350.23V404.392C216.984 406.049 218.327 407.392 219.984 407.392H278.652C280.309 407.392 281.652 406.049 281.652 404.392V350.23C281.652 348.573 280.309 347.23 278.652 347.23Z" fill="#E7E7E7"/>
<path d="M431.814 347.23H300.536C298.879 347.23 297.536 348.573 297.536 350.23V404.392C297.536 406.049 298.879 407.392 300.536 407.392H431.814C433.471 407.392 434.814 406.049 434.814 404.392V350.23C434.814 348.573 433.471 347.23 431.814 347.23Z" fill="#E7E7E7"/>
</g>
<g opacity="0.098">
<path d="M272.6 191.5H262C261.172 191.5 260.5 192.172 260.5 193C260.5 193.828 261.172 194.5 262 194.5H272.6C273.428 194.5 274.1 193.828 274.1 193C274.1 192.172 273.428 191.5 272.6 191.5Z" fill="#4A5166"/>
<path d="M279 191.5H278.8C277.972 191.5 277.3 192.172 277.3 193C277.3 193.828 277.972 194.5 278.8 194.5H279C279.828 194.5 280.5 193.828 280.5 193C280.5 192.172 279.828 191.5 279 191.5Z" fill="#4A5166"/>
</g>
<mask id="mask1_353_235" style="mask-type:alpha" maskUnits="userSpaceOnUse" x="-89" y="571" width="700" height="18">
<path d="M-85.5 571.5H607.4C608.196 571.5 608.959 571.816 609.521 572.379C610.084 572.941 610.4 573.704 610.4 574.5V588.605H-88.5V574.5C-88.5 573.704 -88.1839 572.941 -87.6213 572.379C-87.0587 571.816 -86.2956 571.5 -85.5 571.5V571.5Z" fill="white"/>
</mask>
<g mask="url(#mask1_353_235)">
<path d="M-85.5 571.5H607.4C608.196 571.5 608.959 571.816 609.521 572.379C610.084 572.941 610.4 573.704 610.4 574.5V588.605H-88.5V574.5C-88.5 573.704 -88.1839 572.941 -87.6213 572.379C-87.0587 571.816 -86.2956 571.5 -85.5 571.5V571.5Z" fill="#52526F"/>
<path d="M308.027 529.592H213.871C208.348 529.592 203.871 534.069 203.871 539.592V571.763C203.871 577.286 208.348 581.763 213.871 581.763H308.027C313.55 581.763 318.027 577.286 318.027 571.763V539.592C318.027 534.069 313.55 529.592 308.027 529.592Z" fill="#2F2F47"/>
</g>
<path d="M-88.5 588.5H610.5C610.5 590.091 609.868 591.617 608.743 592.743C607.617 593.868 606.091 594.5 604.5 594.5H-82.5C-84.0913 594.5 -85.6174 593.868 -86.7426 592.743C-87.8679 591.617 -88.5 590.091 -88.5 588.5V588.5Z" fill="#393A56"/>
</g>
</g>
<defs>
<filter id="filter0_d_353_235" x="-128.5" y="171.5" width="779" height="483" filterUnits="userSpaceOnUse" color-interpolation-filters="sRGB">
<feFlood flood-opacity="0" result="BackgroundImageFix"/>
<feColorMatrix in="SourceAlpha" type="matrix" values="0 0 0 0 0 0 0 0 0 0 0 0 0 0 0 0 0 0 127 0" result="hardAlpha"/>
<feOffset dy="20"/>
<feGaussianBlur stdDeviation="20"/>
<feColorMatrix type="matrix" values="0 0 0 0 0.421822 0 0 0 0 0.554338 0 0 0 0 0.89371 0 0 0 0.243444 0"/>
<feBlend mode="normal" in2="BackgroundImageFix" result="effect1_dropShadow_353_235"/>
<feBlend mode="normal" in="SourceGraphic" in2="effect1_dropShadow_353_235" result="shape"/>
</filter>
<linearGradient id="paint0_linear_353_235" x1="10.5" y1="317.443" x2="429.929" y2="595.85" gradientUnits="userSpaceOnUse">
<stop stop-color="#FF8F71"/>
<stop offset="1" stop-color="#FF3E55"/>
</linearGradient>
<clipPath id="clip0_353_235">
<rect width="610" height="785" fill="white"/>
</clipPath>
</defs>
</svg>
