<svg width="375" height="325" viewBox="0 0 375 325" fill="none" xmlns="http://www.w3.org/2000/svg">
<g clip-path="url(#clip0_354_401)">
<path opacity="0.08" d="M300 163.5C300 225.08 250.08 275 188.5 275C126.92 275 77 225.08 77 163.5C77 101.92 126.92 52 188.5 52C250.08 52 300 101.92 300 163.5Z" fill="#2D2E40"/>
<path opacity="0.5" d="M313.5 162C313.5 231.312 257.312 287.5 188 287.5C118.688 287.5 62.5 231.312 62.5 162C62.5 92.6883 118.688 36.5 188 36.5C257.312 36.5 313.5 92.6883 313.5 162Z" stroke="#2D2E40"/>
<path opacity="0.25" d="M350.5 162C350.5 251.746 277.746 324.5 188 324.5C98.2537 324.5 25.5 251.746 25.5 162C25.5 72.2537 98.2537 -0.5 188 -0.5C277.746 -0.5 350.5 72.2537 350.5 162Z" stroke="#2D2E40"/>
<g filter="url(#filter0_d_354_401)">
<path d="M303 74H75C68.3726 74 63 79.3726 63 86V235C63 241.627 68.3726 247 75 247H303C309.627 247 315 241.627 315 235V86C315 79.3726 309.627 74 303 74Z" fill="#535353"/>
<path d="M304 76H74C68.4772 76 64 80.4772 64 86V236C64 241.523 68.4772 246 74 246H304C309.523 246 314 241.523 314 236V86C314 80.4772 309.523 76 304 76Z" fill="#1D1D25"/>
<mask id="mask0_354_401" style="mask-type:alpha" maskUnits="userSpaceOnUse" x="71" y="82" width="237" height="158">
<path d="M305 82H74C72.3431 82 71 83.3431 71 85V236.94C71 238.597 72.3431 239.94 74 239.94H305C306.657 239.94 308 238.597 308 236.94V85C308 83.3431 306.657 82 305 82Z" fill="white"/>
</mask>
<g mask="url(#mask0_354_401)">
<path d="M305 82H74C72.3431 82 71 83.3431 71 85V236.94C71 238.597 72.3431 239.94 74 239.94H305C306.657 239.94 308 238.597 308 236.94V85C308 83.3431 306.657 82 305 82Z" fill="url(#paint0_linear_354_401)"/>
<path d="M304.848 110.352H73.848C72.1912 110.352 70.848 111.695 70.848 113.352V237.061C70.848 238.718 72.1912 240.061 73.848 240.061H304.848C306.505 240.061 307.848 238.718 307.848 237.061V113.352C307.848 111.695 306.505 110.352 304.848 110.352Z" fill="#F9F6F6"/>
<path d="M151.429 99.615H107.478C105.821 99.615 104.478 100.958 104.478 102.615V217.25C104.478 218.907 105.821 220.25 107.478 220.25H151.429C153.086 220.25 154.429 218.907 154.429 217.25V102.615C154.429 100.958 153.086 99.615 151.429 99.615Z" fill="white"/>
<path d="M271.523 99.615H165.931C164.274 99.615 162.931 100.958 162.931 102.615V217.25C162.931 218.907 164.274 220.25 165.931 220.25H271.523C273.18 220.25 274.523 218.907 274.523 217.25V102.615C274.523 100.958 273.18 99.615 271.523 99.615Z" fill="white"/>
<path d="M266.74 106.02H170.713C169.056 106.02 167.713 107.363 167.713 109.02V131.311C167.713 132.968 169.056 134.311 170.713 134.311H266.74C268.397 134.311 269.74 132.968 269.74 131.311V109.02C269.74 107.363 268.397 106.02 266.74 106.02Z" fill="#E7E7E7"/>
<path d="M195.002 140.183H170.713C169.056 140.183 167.713 141.526 167.713 143.183V165.474C167.713 167.131 169.056 168.474 170.713 168.474H195.002C196.659 168.474 198.002 167.131 198.002 165.474V143.183C198.002 141.526 196.659 140.183 195.002 140.183Z" fill="#E7E7E7"/>
<path d="M266.74 140.183H208.442C206.785 140.183 205.442 141.526 205.442 143.183V165.474C205.442 167.131 206.785 168.474 208.442 168.474H266.74C268.397 168.474 269.74 167.131 269.74 165.474V143.183C269.74 141.526 268.397 140.183 266.74 140.183Z" fill="#E7E7E7"/>
</g>
<g opacity="0.098">
<path d="M193.62 67H188.5C188.224 67 188 67.2239 188 67.5C188 67.7761 188.224 68 188.5 68H193.62C193.896 68 194.12 67.7761 194.12 67.5C194.12 67.2239 193.896 67 193.62 67Z" fill="#4A5166"/>
<path d="M196.5 67H196.06C195.784 67 195.56 67.2239 195.56 67.5C195.56 67.7761 195.784 68 196.06 68H196.5C196.776 68 197 67.7761 197 67.5C197 67.2239 196.776 67 196.5 67Z" fill="#4A5166"/>
</g>
<mask id="mask1_354_401" style="mask-type:alpha" maskUnits="userSpaceOnUse" x="24" y="245" width="328" height="8">
<path d="M27 245H348.953C349.749 245 350.512 245.316 351.074 245.879C351.637 246.441 351.953 247.204 351.953 248V252.602H24V248C24 247.204 24.3161 246.441 24.8787 245.879C25.4413 245.316 26.2044 245 27 245V245Z" fill="white"/>
</mask>
<g mask="url(#mask1_354_401)">
<path d="M27 245H348.953C349.749 245 350.512 245.316 351.074 245.879C351.637 246.441 351.953 247.204 351.953 248V252.602H24V248C24 247.204 24.3161 246.441 24.8787 245.879C25.4413 245.316 26.2044 245 27 245V245Z" fill="#52526F"/>
<path d="M204.76 226.374H171.193C165.67 226.374 161.193 230.851 161.193 236.374V239.561C161.193 245.084 165.67 249.561 171.193 249.561H204.76C210.283 249.561 214.76 245.084 214.76 239.561V236.374C214.76 230.851 210.283 226.374 204.76 226.374Z" fill="#2F2F47"/>
</g>
<path d="M24 253H352C352 253.796 351.684 254.559 351.121 255.121C350.559 255.684 349.796 256 349 256H27C26.2044 256 25.4413 255.684 24.8787 255.121C24.3161 254.559 24 253.796 24 253V253Z" fill="#393A56"/>
</g>
</g>
<defs>
<filter id="filter0_d_354_401" x="-16" y="47" width="408" height="269" filterUnits="userSpaceOnUse" color-interpolation-filters="sRGB">
<feFlood flood-opacity="0" result="BackgroundImageFix"/>
<feColorMatrix in="SourceAlpha" type="matrix" values="0 0 0 0 0 0 0 0 0 0 0 0 0 0 0 0 0 0 127 0" result="hardAlpha"/>
<feOffset dy="20"/>
<feGaussianBlur stdDeviation="20"/>
<feColorMatrix type="matrix" values="0 0 0 0 0.421822 0 0 0 0 0.554338 0 0 0 0 0.89371 0 0 0 0.243444 0"/>
<feBlend mode="normal" in2="BackgroundImageFix" result="effect1_dropShadow_354_401"/>
<feBlend mode="normal" in="SourceGraphic" in2="effect1_dropShadow_354_401" result="shape"/>
</filter>
<linearGradient id="paint0_linear_354_401" x1="71" y1="125.899" x2="267.485" y2="256.837" gradientUnits="userSpaceOnUse">
<stop stop-color="#FF8F71"/>
<stop offset="1" stop-color="#FF3E55"/>
</linearGradient>
<clipPath id="clip0_354_401">
<rect width="375" height="325" fill="white"/>
</clipPath>
</defs>
</svg>
