<svg width="375" height="331" viewBox="0 0 375 331" fill="none" xmlns="http://www.w3.org/2000/svg">
<path opacity="0.08" d="M300 164.5C300 226.08 250.08 276 188.5 276C126.92 276 77 226.08 77 164.5C77 102.92 126.92 53 188.5 53C250.08 53 300 102.92 300 164.5Z" fill="#2D2E40"/>
<path opacity="0.5" d="M313.5 163C313.5 232.312 257.312 288.5 188 288.5C118.688 288.5 62.5 232.312 62.5 163C62.5 93.6883 118.688 37.5 188 37.5C257.312 37.5 313.5 93.6883 313.5 163Z" stroke="#2D2E40"/>
<path opacity="0.25" d="M350.5 163C350.5 252.746 277.746 325.5 188 325.5C98.2537 325.5 25.5 252.746 25.5 163C25.5 73.2537 98.2537 0.5 188 0.5C277.746 0.5 350.5 73.2537 350.5 163Z" stroke="#2D2E40"/>
<mask id="mask0_354_332" style="mask-type:alpha" maskUnits="userSpaceOnUse" x="25" y="54" width="326" height="217">
<path d="M346 54H30C27.2386 54 25 56.2386 25 59V266C25 268.761 27.2386 271 30 271H346C348.761 271 351 268.761 351 266V59C351 56.2386 348.761 54 346 54Z" fill="white"/>
</mask>
<g mask="url(#mask0_354_332)">
<g filter="url(#filter0_d_354_332)">
<path d="M346 54H30C27.2386 54 25 56.2386 25 59V266C25 268.761 27.2386 271 30 271H346C348.761 271 351 268.761 351 266V59C351 56.2386 348.761 54 346 54Z" fill="black"/>
</g>
<path d="M346 54H30C27.2386 54 25 56.2386 25 59V266C25 268.761 27.2386 271 30 271H346C348.761 271 351 268.761 351 266V59C351 56.2386 348.761 54 346 54Z" fill="url(#paint0_linear_354_332)"/>
<path d="M28 117.525H348C348.394 117.525 348.784 117.603 349.148 117.753C349.512 117.904 349.843 118.125 350.121 118.404C350.4 118.682 350.621 119.013 350.772 119.377C350.922 119.741 351 120.131 351 120.525V268C351 268.796 350.684 269.559 350.121 270.121C349.559 270.684 348.796 271 348 271H28C27.2044 271 26.4413 270.684 25.8787 270.121C25.3161 269.559 25 268.796 25 268V120.525C25 119.729 25.3161 118.966 25.8787 118.404C26.4413 117.841 27.2044 117.525 28 117.525V117.525Z" fill="#2D2E40"/>
<path d="M136.917 78.246H73.967C72.3101 78.246 70.967 79.5891 70.967 81.246V144.953C70.967 146.61 72.3101 147.953 73.967 147.953H136.917C138.574 147.953 139.917 146.61 139.917 144.953V81.246C139.917 79.5891 138.574 78.246 136.917 78.246Z" fill="white"/>
<path d="M105.442 133.405C116.465 133.405 125.401 124.449 125.401 113.402C125.401 102.355 116.465 93.399 105.442 93.399C94.419 93.399 85.483 102.355 85.483 113.402C85.483 124.449 94.419 133.405 105.442 133.405Z" fill="#2D2E40"/>
<path d="M302.033 78.246H154.408C152.751 78.246 151.408 79.5891 151.408 81.246V240.724C151.408 242.381 152.751 243.724 154.408 243.724H302.033C303.69 243.724 305.033 242.381 305.033 240.724V81.246C305.033 79.5891 303.69 78.246 302.033 78.246Z" fill="white"/>
</g>
<path d="M131 198C154.871 160.606 172.526 140.4 183.964 137.38C201.122 132.85 196.004 179.754 220.708 174.318C245.413 168.882 248.425 121.324 267.111 119.084C285.796 116.843 295.681 160.341 303.844 164.348C309.285 167.02 316.004 161.243 324 147.016" stroke="url(#paint1_linear_354_332)" stroke-width="8" stroke-linecap="round"/>
<defs>
<filter id="filter0_d_354_332" x="-15" y="34" width="406" height="297" filterUnits="userSpaceOnUse" color-interpolation-filters="sRGB">
<feFlood flood-opacity="0" result="BackgroundImageFix"/>
<feColorMatrix in="SourceAlpha" type="matrix" values="0 0 0 0 0 0 0 0 0 0 0 0 0 0 0 0 0 0 127 0" result="hardAlpha"/>
<feOffset dy="20"/>
<feGaussianBlur stdDeviation="20"/>
<feColorMatrix type="matrix" values="0 0 0 0 0.421822 0 0 0 0 0.554338 0 0 0 0 0.89371 0 0 0 0.243444 0"/>
<feBlend mode="normal" in2="BackgroundImageFix" result="effect1_dropShadow_354_332"/>
<feBlend mode="normal" in="SourceGraphic" in2="effect1_dropShadow_354_332" result="shape"/>
</filter>
<linearGradient id="paint0_linear_354_332" x1="25" y1="114.426" x2="295.256" y2="294.319" gradientUnits="userSpaceOnUse">
<stop stop-color="#FF8F71"/>
<stop offset="1" stop-color="#FF3E55"/>
</linearGradient>
<linearGradient id="paint1_linear_354_332" x1="131" y1="151.882" x2="300.946" y2="221.443" gradientUnits="userSpaceOnUse">
<stop stop-color="#FF8F71"/>
<stop offset="1" stop-color="#FF3E55"/>
</linearGradient>
</defs>
</svg>
