<svg width="375" height="396" viewBox="0 0 375 396" fill="none" xmlns="http://www.w3.org/2000/svg">
<g clip-path="url(#clip0_354_357)">
<g clip-path="url(#clip1_354_357)">
<path d="M362.718 65.7755C362.718 162.269 284.494 240.492 188 240.492C91.5054 240.492 13.2813 162.269 13.2813 65.7755V64.587C13.2813 -31.9063 91.5054 -110.13 188 -110.13C284.494 -110.13 362.718 -31.9063 362.718 64.587V65.7755Z" fill="#3E4062"/>
<path opacity="0.5" d="M489 65.3737C489 231.61 354.238 366.37 188 366.37C21.7623 366.37 -113 231.61 -113 65.3737V62.9967C-113 -103.239 21.7623 -238 188 -238C354.238 -238 489 -103.239 489 62.9967V65.3737Z" stroke="#878D92"/>
<path d="M387.967 65.7826C387.967 176.225 298.437 265.757 187.995 265.757C77.5532 265.757 -11.9775 176.225 -11.9775 65.7826V64.594C-11.9775 -45.8487 77.5532 -135.38 187.995 -135.38C298.437 -135.38 387.967 -45.8487 387.967 64.594V65.7826Z" stroke="#878D92"/>
</g>
</g>
<defs>
<clipPath id="clip0_354_357">
<rect width="375" height="396" fill="white"/>
</clipPath>
<clipPath id="clip1_354_357">
<rect width="602" height="604.37" fill="white" transform="translate(-113 -238)"/>
</clipPath>
</defs>
</svg>
