<svg width="375" height="599" viewBox="0 0 375 599" fill="none" xmlns="http://www.w3.org/2000/svg">
<g clip-path="url(#clip0_353_319)">
<path fill-rule="evenodd" clip-rule="evenodd" d="M643.017 577.871L520.147 881.987L216.03 759.116L301.441 547.718C322.13 496.511 380.413 471.772 431.62 492.461L643.017 577.871ZM137.959 372.435C221.939 406.365 262.512 501.95 228.582 585.929C194.652 669.909 99.0678 710.482 15.0884 676.552C-68.891 642.622 -109.464 547.038 -75.5343 463.058C-41.6044 379.079 53.98 338.506 137.959 372.435ZM788.017 219.871L665.146 523.987L453.749 438.577C402.542 417.888 377.802 359.605 398.491 308.398L483.901 97L788.017 219.871ZM434.017 75.871L348.607 287.269C327.918 338.476 269.635 363.216 218.428 342.527L7.03023 257.116L129.901 -47L434.017 75.871Z" fill="url(#paint0_linear_353_319)"/>
</g>
<defs>
<linearGradient id="paint0_linear_353_319" x1="134.477" y1="-45.1511" x2="522.335" y2="877.549" gradientUnits="userSpaceOnUse">
<stop stop-color="#FF8F71"/>
<stop offset="1" stop-color="#FF3E55"/>
</linearGradient>
<clipPath id="clip0_353_319">
<rect width="375" height="599" fill="white"/>
</clipPath>
</defs>
</svg>
