<svg width="1440" height="600" viewBox="0 0 1440 600" fill="none" xmlns="http://www.w3.org/2000/svg">
<g clip-path="url(#clip0_351_153)">
<path fill-rule="evenodd" clip-rule="evenodd" d="M1913.19 628.749L1617.85 1359.75L888.371 1065.02L1146.25 426.74C1166.94 375.534 1225.23 350.794 1276.43 371.482L1913.19 628.75L1913.19 628.749ZM698.606 136.762C900.046 218.149 997.367 447.426 915.981 648.865L915.365 650.39C833.978 851.83 604.702 949.151 403.262 867.764C201.822 786.377 104.502 557.1 185.888 355.662L186.504 354.137C267.891 152.697 497.167 55.3757 698.606 136.762V136.762ZM1409.3 -575.272L1151.42 63.0103C1130.73 114.219 1072.45 138.957 1021.24 118.268L384.481 -138.999L679.824 -870L1409.3 -575.272V-575.272ZM2260.67 -231.296L1965.33 499.705L1328.57 242.438C1277.36 221.749 1252.62 163.466 1273.31 112.259L1531.2 -526.024L2260.67 -231.296Z" fill="url(#paint0_linear_351_153)"/>
</g>
<defs>
<linearGradient id="paint0_linear_351_153" x1="689.926" y1="-865.919" x2="1621.99" y2="1349.68" gradientUnits="userSpaceOnUse">
<stop stop-color="#FF8F71"/>
<stop offset="1" stop-color="#FF3E55"/>
</linearGradient>
<clipPath id="clip0_351_153">
<rect width="1440" height="600" fill="white"/>
</clipPath>
</defs>
</svg>
